solid banana_cc0_poly_pizza_kenney
  facet normal 0 0.9074094379736467 -0.4202476792040028
    outer loop
      vertex 0.009372211061418056 0.15995420515537262 0.23753559589385986
      vertex -0.01265248004347086 0.19580039381980896 0.3149355947971344
      vertex 0.01265248004347086 0.19580039381980896 0.3149355947971344
    endloop
  endfacet
  facet normal 0 0.9074094379736467 -0.4202476792040028
    outer loop
      vertex -0.01265248004347086 0.19580039381980896 0.3149355947971344
      vertex 0.009372211061418056 0.15995420515537262 0.23753559589385986
      vertex -0.009372211061418056 0.15995420515537262 0.23753559589385986
    endloop
  endfacet
  facet normal -0.8391845967523297 0.47905966311328824 -0.25743164481355557
    outer loop
      vertex -0.025304969400167465 0.17363660037517548 0.3149355947971344
      vertex -0.009372211061418056 0.15995420515537262 0.23753559589385986
      vertex -0.018744420260190964 0.14353659749031067 0.23753559589385986
    endloop
  endfacet
  facet normal -0.8391847008705969 0.47905948603030013 -0.2574316349423896
    outer loop
      vertex -0.009372211061418056 0.15995420515537262 0.23753559589385986
      vertex -0.025304969400167465 0.17363660037517548 0.3149355947971344
      vertex -0.01265248004347086 0.19580039381980896 0.3149355947971344
    endloop
  endfacet
  facet normal 0.8623508155164545 -0.4922848533265939 0.11834988028434809
    outer loop
      vertex 0.025304969400167465 0.17363660037517548 0.3149355947971344
      vertex 0.009372211061418056 0.1271190047264099 0.23753559589385986
      vertex 0.018744420260190964 0.14353659749031067 0.23753559589385986
    endloop
  endfacet
  facet normal 0.8623501858515631 -0.49228578985216764 0.11835057275485536
    outer loop
      vertex 0.009372211061418056 0.1271190047264099 0.23753559589385986
      vertex 0.025304969400167465 0.17363660037517548 0.3149355947971344
      vertex 0.01265248004347086 0.15147289633750916 0.3149355947971344
    endloop
  endfacet
  facet normal 0 0 1
    outer loop
      vertex 0.01265248004347086 0.15147289633750916 0.3149355947971344
      vertex -0.025304969400167465 0.17363660037517548 0.3149355947971344
      vertex -0.01265248004347086 0.15147289633750916 0.3149355947971344
    endloop
  endfacet
  facet normal 0 0 1
    outer loop
      vertex -0.025304969400167465 0.17363660037517548 0.3149355947971344
      vertex 0.01265248004347086 0.15147289633750916 0.3149355947971344
      vertex 0.025304969400167465 0.17363660037517548 0.3149355947971344
    endloop
  endfacet
  facet normal 0 0 1
    outer loop
      vertex -0.025304969400167465 0.17363660037517548 0.3149355947971344
      vertex 0.025304969400167465 0.17363660037517548 0.3149355947971344
      vertex -0.01265248004347086 0.19580039381980896 0.3149355947971344
    endloop
  endfacet
  facet normal 0 0 1
    outer loop
      vertex -0.01265248004347086 0.19580039381980896 0.3149355947971344
      vertex 0.025304969400167465 0.17363660037517548 0.3149355947971344
      vertex 0.01265248004347086 0.19580039381980896 0.3149355947971344
    endloop
  endfacet
  facet normal 0 -0.9538943346339142 0.3001426300166672
    outer loop
      vertex -0.01265248004347086 0.15147289633750916 0.3149355947971344
      vertex 0.009372211061418056 0.1271190047264099 0.23753559589385986
      vertex 0.01265248004347086 0.15147289633750916 0.3149355947971344
    endloop
  endfacet
  facet normal 0 -0.9538943346339143 0.30014263001666724
    outer loop
      vertex 0.009372211061418056 0.1271190047264099 0.23753559589385986
      vertex -0.01265248004347086 0.15147289633750916 0.3149355947971344
      vertex -0.009372211061418056 0.1271190047264099 0.23753559589385986
    endloop
  endfacet
  facet normal -0.8623508155164545 -0.4922848533265939 0.11834988028434809
    outer loop
      vertex -0.009372211061418056 0.1271190047264099 0.23753559589385986
      vertex -0.025304969400167465 0.17363660037517548 0.3149355947971344
      vertex -0.018744420260190964 0.14353659749031067 0.23753559589385986
    endloop
  endfacet
  facet normal -0.8623501858515631 -0.49228578985216764 0.11835057275485536
    outer loop
      vertex -0.025304969400167465 0.17363660037517548 0.3149355947971344
      vertex -0.009372211061418056 0.1271190047264099 0.23753559589385986
      vertex -0.01265248004347086 0.15147289633750916 0.3149355947971344
    endloop
  endfacet
  facet normal 0.8391845821207589 0.47905965476066187 -0.2574317080536176
    outer loop
      vertex 0.01265248004347086 0.19580039381980896 0.3149355947971344
      vertex 0.018744420260190964 0.14353659749031067 0.23753559589385986
      vertex 0.009372211061418056 0.15995420515537262 0.23753559589385986
    endloop
  endfacet
  facet normal 0.8391847117087866 0.4790594922174215 -0.2574315880979398
    outer loop
      vertex 0.018744420260190964 0.14353659749031067 0.23753559589385986
      vertex 0.01265248004347086 0.19580039381980896 0.3149355947971344
      vertex 0.025304969400167465 0.17363660037517548 0.3149355947971344
    endloop
  endfacet
  facet normal -0.7721480517896033 -0.44580006540690725 -0.4528241245789776
    outer loop
      vertex -0.013270690105855465 0.12689700722694397 -0.29203560948371887
      vertex -0.0238504596054554 0.16848249733448029 -0.3149355947971344
      vertex -0.0119252298027277 0.1478274017572403 -0.3149355947971344
    endloop
  endfacet
  facet normal -0.7721475163184094 -0.4458003031145866 -0.4528248036340923
    outer loop
      vertex -0.0238504596054554 0.16848249733448029 -0.3149355947971344
      vertex -0.013270690105855465 0.12689700722694397 -0.29203560948371887
      vertex -0.026541389524936676 0.1498824954032898 -0.29203560948371887
    endloop
  endfacet
  facet normal 0.8285049323586693 0.4783353231100579 0.291161288159249
    outer loop
      vertex 0.0119252298027277 0.18913769721984863 -0.3149355947971344
      vertex 0.026541389524936676 0.1498824954032898 -0.29203560948371887
      vertex 0.0238504596054554 0.16848249733448029 -0.3149355947971344
    endloop
  endfacet
  facet normal 0.8285045099725721 0.4783356008277722 0.2911620338159536
    outer loop
      vertex 0.026541389524936676 0.1498824954032898 -0.29203560948371887
      vertex 0.0119252298027277 0.18913769721984863 -0.3149355947971344
      vertex 0.013270690105855465 0.17286810278892517 -0.29203560948371887
    endloop
  endfacet
  facet normal -0.8285049323586693 0.4783353231100579 0.291161288159249
    outer loop
      vertex -0.026541389524936676 0.1498824954032898 -0.29203560948371887
      vertex -0.0119252298027277 0.18913769721984863 -0.3149355947971344
      vertex -0.0238504596054554 0.16848249733448029 -0.3149355947971344
    endloop
  endfacet
  facet normal -0.8285045099725721 0.4783356008277722 0.2911620338159536
    outer loop
      vertex -0.0119252298027277 0.18913769721984863 -0.3149355947971344
      vertex -0.026541389524936676 0.1498824954032898 -0.29203560948371887
      vertex -0.013270690105855465 0.17286810278892517 -0.29203560948371887
    endloop
  endfacet
  facet normal 0 -0.7381369114132137 -0.6746509467934966
    outer loop
      vertex -0.013270690105855465 0.12689700722694397 -0.29203560948371887
      vertex 0.0119252298027277 0.1478274017572403 -0.3149355947971344
      vertex 0.013270690105855465 0.12689700722694397 -0.29203560948371887
    endloop
  endfacet
  facet normal 0 -0.7381369114132138 -0.6746509467934966
    outer loop
      vertex 0.0119252298027277 0.1478274017572403 -0.3149355947971344
      vertex -0.013270690105855465 0.12689700722694397 -0.29203560948371887
      vertex -0.0119252298027277 0.1478274017572403 -0.3149355947971344
    endloop
  endfacet
  facet normal 0.7721480517896033 -0.44580006540690725 -0.4528241245789776
    outer loop
      vertex 0.0238504596054554 0.16848249733448029 -0.3149355947971344
      vertex 0.013270690105855465 0.12689700722694397 -0.29203560948371887
      vertex 0.0119252298027277 0.1478274017572403 -0.3149355947971344
    endloop
  endfacet
  facet normal 0.7721475163184094 -0.4458003031145866 -0.4528248036340923
    outer loop
      vertex 0.013270690105855465 0.12689700722694397 -0.29203560948371887
      vertex 0.0238504596054554 0.16848249733448029 -0.3149355947971344
      vertex 0.026541389524936676 0.1498824954032898 -0.29203560948371887
    endloop
  endfacet
  facet normal 0 0.8152047417615831 0.5791728835239358
    outer loop
      vertex 0.0119252298027277 0.18913769721984863 -0.3149355947971344
      vertex -0.013270690105855465 0.17286810278892517 -0.29203560948371887
      vertex 0.013270690105855465 0.17286810278892517 -0.29203560948371887
    endloop
  endfacet
  facet normal 0 0.8152047417615831 0.5791728835239358
    outer loop
      vertex -0.013270690105855465 0.17286810278892517 -0.29203560948371887
      vertex 0.0119252298027277 0.18913769721984863 -0.3149355947971344
      vertex -0.0119252298027277 0.18913769721984863 -0.3149355947971344
    endloop
  endfacet
  facet normal 0 0 -1
    outer loop
      vertex -0.0238504596054554 0.16848249733448029 -0.3149355947971344
      vertex 0.0119252298027277 0.1478274017572403 -0.3149355947971344
      vertex -0.0119252298027277 0.1478274017572403 -0.3149355947971344
    endloop
  endfacet
  facet normal 0 0 -1
    outer loop
      vertex 0.0119252298027277 0.1478274017572403 -0.3149355947971344
      vertex -0.0238504596054554 0.16848249733448029 -0.3149355947971344
      vertex 0.0238504596054554 0.16848249733448029 -0.3149355947971344
    endloop
  endfacet
  facet normal 0 0 -1
    outer loop
      vertex 0.0238504596054554 0.16848249733448029 -0.3149355947971344
      vertex -0.0238504596054554 0.16848249733448029 -0.3149355947971344
      vertex -0.0119252298027277 0.18913769721984863 -0.3149355947971344
    endloop
  endfacet
  facet normal 0 0 -1
    outer loop
      vertex 0.0238504596054554 0.16848249733448029 -0.3149355947971344
      vertex -0.0119252298027277 0.18913769721984863 -0.3149355947971344
      vertex 0.0119252298027277 0.18913769721984863 -0.3149355947971344
    endloop
  endfacet
  facet normal -0.8653463909644932 0.49960775304464045 0.03959440291773861
    outer loop
      vertex -0.06054399907588959 0.06613662838935852 0.07048937678337097
      vertex -0.03440000116825104 0.1191651001572609 -0.027247199788689613
      vertex -0.06879998743534088 0.05958255007863045 -0.027247199788689613
    endloop
  endfacet
  facet normal -0.8678709639756328 0.495435537638261 0.03665539432461556
    outer loop
      vertex -0.06054399907588959 0.06613662838935852 0.07048937678337097
      vertex -0.030271999537944794 0.1191651001572609 0.07048937678337097
      vertex -0.03440000116825104 0.1191651001572609 -0.027247199788689613
    endloop
  endfacet
  facet normal 0.8678709639756328 0.495435537638261 0.03665539432461556
    outer loop
      vertex 0.06054399907588959 0.06613662838935852 0.07048937678337097
      vertex 0.03440000116825104 0.1191651001572609 -0.027247199788689613
      vertex 0.030271999537944794 0.1191651001572609 0.07048937678337097
    endloop
  endfacet
  facet normal 0.8635613705223136 -0.4929753842489235 0.10600485774835751
    outer loop
      vertex 0.06054399907588959 0.06613662838935852 0.07048937678337097
      vertex 0.030271999537944794 0.013108160346746445 0.07048937678337097
      vertex 0.06879998743534088 0.05958255007863045 -0.027247199788689613
    endloop
  endfacet
  facet normal 0.8614118861666817 -0.49733616663503677 0.1030839450522073
    outer loop
      vertex 0.030271999537944794 0.013108160346746445 0.07048937678337097
      vertex 0.03440000116825104 8.775735672005014e-15 -0.027247199788689613
      vertex 0.06879998743534088 0.05958255007863045 -0.027247199788689613
    endloop
  endfacet
  facet normal -0.8635613705223136 -0.4929753842489235 0.10600485774835751
    outer loop
      vertex -0.06054399907588959 0.06613662838935852 0.07048937678337097
      vertex -0.06879998743534088 0.05958255007863045 -0.027247199788689613
      vertex -0.030271999537944794 0.013108160346746445 0.07048937678337097
    endloop
  endfacet
  facet normal 0.8653463909644932 0.49960775304464045 0.03959440291773861
    outer loop
      vertex 0.06054399907588959 0.06613662838935852 0.07048937678337097
      vertex 0.06879998743534088 0.05958255007863045 -0.027247199788689613
      vertex 0.03440000116825104 0.1191651001572609 -0.027247199788689613
    endloop
  endfacet
  facet normal -0.8614118861667102 -0.4973361666349799 0.10308394505224554
    outer loop
      vertex -0.030271999537944794 0.013108160346746445 0.07048937678337097
      vertex -0.06879998743534088 0.05958255007863045 -0.027247199788689613
      vertex -0.03440000116825104 0 -0.027247199788689613
    endloop
  endfacet
  facet normal 0.8660039320366406 0.49998783541396485 0.0070252498272780775
    outer loop
      vertex 0.03440000116825104 0.1191651001572609 -0.027247199788689613
      vertex 0.06467199325561523 0.06818254292011261 -0.13044719398021698
      vertex 0.032336000353097916 0.12419009953737259 -0.13044719398021698
    endloop
  endfacet
  facet normal 0.8660041259690505 0.499987496360331 0.007025474212384435
    outer loop
      vertex 0.06467199325561523 0.06818254292011261 -0.13044719398021698
      vertex 0.03440000116825104 0.1191651001572609 -0.027247199788689613
      vertex 0.06879998743534088 0.05958255007863045 -0.027247199788689613
    endloop
  endfacet
  facet normal 0.8677298314433759 0.4953549702787118 -0.04084596728475286
    outer loop
      vertex 0.021795839071273804 0.14301709830760956 0.17968469858169556
      vertex 0.06054399907588959 0.06613662838935852 0.07048937678337097
      vertex 0.030271999537944794 0.1191651001572609 0.07048937678337097
    endloop
  endfacet
  facet normal 0.8677298411210486 0.49535495452384076 -0.04084595275817908
    outer loop
      vertex 0.06054399907588959 0.06613662838935852 0.07048937678337097
      vertex 0.021795839071273804 0.14301709830760956 0.17968469858169556
      vertex 0.04359167814254761 0.1048365980386734 0.17968469858169556
    endloop
  endfacet
  facet normal 0.8635150288674956 -0.4985505425160395 -0.07608647367916879
    outer loop
      vertex 0.06467199325561523 0.06818254292011261 -0.13044719398021698
      vertex 0.03440000116825104 8.775735672005014e-15 -0.027247199788689613
      vertex 0.032336000353097916 0.01217494998127222 -0.13044719398021698
    endloop
  endfacet
  facet normal 0.8635150887740712 -0.4985504506949778 -0.07608639544190797
    outer loop
      vertex 0.03440000116825104 8.775735672005014e-15 -0.027247199788689613
      vertex 0.06467199325561523 0.06818254292011261 -0.13044719398021698
      vertex 0.06879998743534088 0.05958255007863045 -0.027247199788689613
    endloop
  endfacet
  facet normal 0 0.9988166552972796 0.04863423794772002
    outer loop
      vertex 0.032336000353097916 0.12419009953737259 -0.13044719398021698
      vertex -0.03440000116825104 0.1191651001572609 -0.027247199788689613
      vertex 0.03440000116825104 0.1191651001572609 -0.027247199788689613
    endloop
  endfacet
  facet normal 0 0.9988166552972795 0.04863423794772001
    outer loop
      vertex -0.03440000116825104 0.1191651001572609 -0.027247199788689613
      vertex 0.032336000353097916 0.12419009953737259 -0.13044719398021698
      vertex -0.032336000353097916 0.12419009953737259 -0.13044719398021698
    endloop
  endfacet
  facet normal 0.8293860249012991 -0.47346593800172826 0.2965616752895852
    outer loop
      vertex 0.06054399907588959 0.06613662838935852 0.07048937678337097
      vertex 0.021795839071273804 0.06665612757205963 0.17968469858169556
      vertex 0.030271999537944794 0.013108160346746445 0.07048937678337097
    endloop
  endfacet
  facet normal 0.8293859004544725 -0.4734661829297376 0.29656163229465127
    outer loop
      vertex 0.021795839071273804 0.06665612757205963 0.17968469858169556
      vertex 0.06054399907588959 0.06613662838935852 0.07048937678337097
      vertex 0.04359167814254761 0.1048365980386734 0.17968469858169556
    endloop
  endfacet
  facet normal 0 -0.6913277344908655 0.7225413230561469
    outer loop
      vertex 0.021795839071273804 0.06665612757205963 0.17968469858169556
      vertex -0.009372211061418056 0.1271190047264099 0.23753559589385986
      vertex -0.021795839071273804 0.06665612757205963 0.17968469858169556
    endloop
  endfacet
  facet normal 0 -0.6913277344908656 0.7225413230561469
    outer loop
      vertex -0.009372211061418056 0.1271190047264099 0.23753559589385986
      vertex 0.021795839071273804 0.06665612757205963 0.17968469858169556
      vertex 0.009372211061418056 0.1271190047264099 0.23753559589385986
    endloop
  endfacet
  facet normal 0.7099093591143522 -0.4052613798978117 0.5760138156374128
    outer loop
      vertex 0.018744420260190964 0.14353659749031067 0.23753559589385986
      vertex 0.021795839071273804 0.06665612757205963 0.17968469858169556
      vertex 0.04359167814254761 0.1048365980386734 0.17968469858169556
    endloop
  endfacet
  facet normal 0.7099092210275212 -0.405261467213237 0.5760139243909581
    outer loop
      vertex 0.021795839071273804 0.06665612757205963 0.17968469858169556
      vertex 0.018744420260190964 0.14353659749031067 0.23753559589385986
      vertex 0.009372211061418056 0.1271190047264099 0.23753559589385986
    endloop
  endfacet
  facet normal 1.2643862579811974e-13 -0.9911258222681499 0.13292706433711488
    outer loop
      vertex 0.030271999537944794 0.013108160346746445 0.07048937678337097
      vertex -0.03440000116825104 0 -0.027247199788689613
      vertex 0.03440000116825104 8.775735672005014e-15 -0.027247199788689613
    endloop
  endfacet
  facet normal 0 -0.991125822268139 0.13292706433719706
    outer loop
      vertex -0.03440000116825104 0 -0.027247199788689613
      vertex 0.030271999537944794 0.013108160346746445 0.07048937678337097
      vertex -0.030271999537944794 0.013108160346746445 0.07048937678337097
    endloop
  endfacet
  facet normal 0 0.9597144298573167 -0.28097724662976814
    outer loop
      vertex -0.021795839071273804 0.14301709830760956 0.17968469858169556
      vertex 0.009372211061418056 0.15995420515537262 0.23753559589385986
      vertex 0.021795839071273804 0.14301709830760956 0.17968469858169556
    endloop
  endfacet
  facet normal 0 0.9597144298573167 -0.28097724662976814
    outer loop
      vertex 0.009372211061418056 0.15995420515537262 0.23753559589385986
      vertex -0.021795839071273804 0.14301709830760956 0.17968469858169556
      vertex -0.009372211061418056 0.15995420515537262 0.23753559589385986
    endloop
  endfacet
  facet normal -0.8677128979730251 0.49534528230569064 0.04132043064574561
    outer loop
      vertex -0.018744420260190964 0.14353659749031067 0.23753559589385986
      vertex -0.021795839071273804 0.14301709830760956 0.17968469858169556
      vertex -0.04359167814254761 0.1048365980386734 0.17968469858169556
    endloop
  endfacet
  facet normal -0.8677128377866872 0.4953453880801485 0.041320426521289824
    outer loop
      vertex -0.021795839071273804 0.14301709830760956 0.17968469858169556
      vertex -0.018744420260190964 0.14353659749031067 0.23753559589385986
      vertex -0.009372211061418056 0.15995420515537262 0.23753559589385986
    endloop
  endfacet
  facet normal 0 0.9769643708735697 -0.21340247900062023
    outer loop
      vertex -0.030271999537944794 0.1191651001572609 0.07048937678337097
      vertex 0.021795839071273804 0.14301709830760956 0.17968469858169556
      vertex 0.030271999537944794 0.1191651001572609 0.07048937678337097
    endloop
  endfacet
  facet normal 0 0.9769643708735698 -0.21340247900062023
    outer loop
      vertex 0.021795839071273804 0.14301709830760956 0.17968469858169556
      vertex -0.030271999537944794 0.1191651001572609 0.07048937678337097
      vertex -0.021795839071273804 0.14301709830760956 0.17968469858169556
    endloop
  endfacet
  facet normal 0 -0.8978529594965856 0.440295427097787
    outer loop
      vertex 0.021795839071273804 0.06665612757205963 0.17968469858169556
      vertex -0.030271999537944794 0.013108160346746445 0.07048937678337097
      vertex 0.030271999537944794 0.013108160346746445 0.07048937678337097
    endloop
  endfacet
  facet normal 0 -0.8978529594965856 0.440295427097787
    outer loop
      vertex -0.030271999537944794 0.013108160346746445 0.07048937678337097
      vertex 0.021795839071273804 0.06665612757205963 0.17968469858169556
      vertex -0.021795839071273804 0.06665612757205963 0.17968469858169556
    endloop
  endfacet
  facet normal 0 1 0
    outer loop
      vertex -0.03440000116825104 0.1191651001572609 -0.027247199788689613
      vertex 0.030271999537944794 0.1191651001572609 0.07048937678337097
      vertex 0.03440000116825104 0.1191651001572609 -0.027247199788689613
    endloop
  endfacet
  facet normal 0 1 0
    outer loop
      vertex 0.030271999537944794 0.1191651001572609 0.07048937678337097
      vertex -0.03440000116825104 0.1191651001572609 -0.027247199788689613
      vertex -0.030271999537944794 0.1191651001572609 0.07048937678337097
    endloop
  endfacet
  facet normal -0.8677298314433759 0.4953549702787118 -0.04084596728475286
    outer loop
      vertex -0.06054399907588959 0.06613662838935852 0.07048937678337097
      vertex -0.021795839071273804 0.14301709830760956 0.17968469858169556
      vertex -0.030271999537944794 0.1191651001572609 0.07048937678337097
    endloop
  endfacet
  facet normal -0.8677298411210486 0.49535495452384076 -0.04084595275817908
    outer loop
      vertex -0.021795839071273804 0.14301709830760956 0.17968469858169556
      vertex -0.06054399907588959 0.06613662838935852 0.07048937678337097
      vertex -0.04359167814254761 0.1048365980386734 0.17968469858169556
    endloop
  endfacet
  facet normal -0.8293860249012991 -0.47346593800172826 0.2965616752895852
    outer loop
      vertex -0.021795839071273804 0.06665612757205963 0.17968469858169556
      vertex -0.06054399907588959 0.06613662838935852 0.07048937678337097
      vertex -0.030271999537944794 0.013108160346746445 0.07048937678337097
    endloop
  endfacet
  facet normal -0.8293859004544725 -0.4734661829297376 0.29656163229465127
    outer loop
      vertex -0.06054399907588959 0.06613662838935852 0.07048937678337097
      vertex -0.021795839071273804 0.06665612757205963 0.17968469858169556
      vertex -0.04359167814254761 0.1048365980386734 0.17968469858169556
    endloop
  endfacet
  facet normal 0.8677128979730251 0.49534528230569064 0.04132043064574561
    outer loop
      vertex 0.021795839071273804 0.14301709830760956 0.17968469858169556
      vertex 0.018744420260190964 0.14353659749031067 0.23753559589385986
      vertex 0.04359167814254761 0.1048365980386734 0.17968469858169556
    endloop
  endfacet
  facet normal 0.8677128377866872 0.4953453880801485 0.041320426521289824
    outer loop
      vertex 0.018744420260190964 0.14353659749031067 0.23753559589385986
      vertex 0.021795839071273804 0.14301709830760956 0.17968469858169556
      vertex 0.009372211061418056 0.15995420515537262 0.23753559589385986
    endloop
  endfacet
  facet normal -0.7099093591143522 -0.4052613798978117 0.5760138156374128
    outer loop
      vertex -0.021795839071273804 0.06665612757205963 0.17968469858169556
      vertex -0.018744420260190964 0.14353659749031067 0.23753559589385986
      vertex -0.04359167814254761 0.1048365980386734 0.17968469858169556
    endloop
  endfacet
  facet normal -0.7099092210275212 -0.405261467213237 0.5760139243909581
    outer loop
      vertex -0.018744420260190964 0.14353659749031067 0.23753559589385986
      vertex -0.021795839071273804 0.06665612757205963 0.17968469858169556
      vertex -0.009372211061418056 0.1271190047264099 0.23753559589385986
    endloop
  endfacet
  facet normal 0 -0.6669170874380165 -0.7451319336085344
    outer loop
      vertex -0.013270690105855465 0.12689700722694397 -0.29203560948371887
      vertex 0.023281920701265335 0.062257081270217896 -0.23418079316616058
      vertex -0.023281920701265335 0.062257081270217896 -0.23418079316616058
    endloop
  endfacet
  facet normal 0 -0.6669170874380165 -0.7451319336085344
    outer loop
      vertex 0.023281920701265335 0.062257081270217896 -0.23418079316616058
      vertex -0.013270690105855465 0.12689700722694397 -0.29203560948371887
      vertex 0.013270690105855465 0.12689700722694397 -0.29203560948371887
    endloop
  endfacet
  facet normal 1.2667580607976361e-13 -0.9931128374875966 -0.1171618197935425
    outer loop
      vertex -0.03440000116825104 0 -0.027247199788689613
      vertex 0.032336000353097916 0.01217494998127222 -0.13044719398021698
      vertex 0.03440000116825104 8.775735672005014e-15 -0.027247199788689613
    endloop
  endfacet
  facet normal 0 -0.9931128374875872 -0.1171618197936233
    outer loop
      vertex 0.032336000353097916 0.01217494998127222 -0.13044719398021698
      vertex -0.03440000116825104 0 -0.027247199788689613
      vertex -0.032336000353097916 0.01217494998127222 -0.13044719398021698
    endloop
  endfacet
  facet normal 0 0.8879971293846324 0.45984899500232945
    outer loop
      vertex 0.013270690105855465 0.17286810278892517 -0.29203560948371887
      vertex -0.023281920701265335 0.1429080069065094 -0.23418079316616058
      vertex 0.023281920701265335 0.1429080069065094 -0.23418079316616058
    endloop
  endfacet
  facet normal 0 0.8879971293846325 0.45984899500232945
    outer loop
      vertex -0.023281920701265335 0.1429080069065094 -0.23418079316616058
      vertex 0.013270690105855465 0.17286810278892517 -0.29203560948371887
      vertex -0.013270690105855465 0.17286810278892517 -0.29203560948371887
    endloop
  endfacet
  facet normal 0 0.9841073800108036 0.17757439175813533
    outer loop
      vertex 0.023281920701265335 0.1429080069065094 -0.23418079316616058
      vertex -0.032336000353097916 0.12419009953737259 -0.13044719398021698
      vertex 0.032336000353097916 0.12419009953737259 -0.13044719398021698
    endloop
  endfacet
  facet normal 0 0.9841073800108036 0.17757439175813536
    outer loop
      vertex -0.032336000353097916 0.12419009953737259 -0.13044719398021698
      vertex 0.023281920701265335 0.1429080069065094 -0.23418079316616058
      vertex -0.023281920701265335 0.1429080069065094 -0.23418079316616058
    endloop
  endfacet
  facet normal -0.8255423910848227 -0.47662772968946404 -0.30216844278154004
    outer loop
      vertex -0.023281920701265335 0.062257081270217896 -0.23418079316616058
      vertex -0.06467199325561523 0.06818254292011261 -0.13044719398021698
      vertex -0.04656384140253067 0.10258249938488007 -0.23418079316616058
    endloop
  endfacet
  facet normal -0.8255426549434443 -0.476627186248244 -0.3021685791044644
    outer loop
      vertex -0.06467199325561523 0.06818254292011261 -0.13044719398021698
      vertex -0.023281920701265335 0.062257081270217896 -0.23418079316616058
      vertex -0.032336000353097916 0.01217494998127222 -0.13044719398021698
    endloop
  endfacet
  facet normal -0.860920857400781 0.4970511211865297 0.10842260013262084
    outer loop
      vertex -0.04656384140253067 0.10258249938488007 -0.23418079316616058
      vertex -0.013270690105855465 0.17286810278892517 -0.29203560948371887
      vertex -0.026541389524936676 0.1498824954032898 -0.29203560948371887
    endloop
  endfacet
  facet normal -0.8609201539126959 0.49705201460305565 0.10842409033966588
    outer loop
      vertex -0.013270690105855465 0.17286810278892517 -0.29203560948371887
      vertex -0.04656384140253067 0.10258249938488007 -0.23418079316616058
      vertex -0.023281920701265335 0.1429080069065094 -0.23418079316616058
    endloop
  endfacet
  facet normal -0.8659329148942184 0.4999461307801082 0.01463055777478175
    outer loop
      vertex -0.06467199325561523 0.06818254292011261 -0.13044719398021698
      vertex -0.023281920701265335 0.1429080069065094 -0.23418079316616058
      vertex -0.04656384140253067 0.10258249938488007 -0.23418079316616058
    endloop
  endfacet
  facet normal -0.8659326042026102 0.49994665425066714 0.014631058828721982
    outer loop
      vertex -0.023281920701265335 0.1429080069065094 -0.23418079316616058
      vertex -0.06467199325561523 0.06818254292011261 -0.13044719398021698
      vertex -0.032336000353097916 0.12419009953737259 -0.13044719398021698
    endloop
  endfacet
  facet normal 0 -0.9005385775411685 -0.434776115213484
    outer loop
      vertex -0.032336000353097916 0.01217494998127222 -0.13044719398021698
      vertex 0.023281920701265335 0.062257081270217896 -0.23418079316616058
      vertex 0.032336000353097916 0.01217494998127222 -0.13044719398021698
    endloop
  endfacet
  facet normal 0 -0.9005385775411685 -0.434776115213484
    outer loop
      vertex 0.023281920701265335 0.062257081270217896 -0.23418079316616058
      vertex -0.032336000353097916 0.01217494998127222 -0.13044719398021698
      vertex -0.023281920701265335 0.062257081270217896 -0.23418079316616058
    endloop
  endfacet
  facet normal -0.8635150288674929 -0.49855054251603786 -0.07608647367921093
    outer loop
      vertex -0.03440000116825104 0 -0.027247199788689613
      vertex -0.06467199325561523 0.06818254292011261 -0.13044719398021698
      vertex -0.032336000353097916 0.01217494998127222 -0.13044719398021698
    endloop
  endfacet
  facet normal -0.8635150887741033 -0.4985504506949229 -0.07608639544190468
    outer loop
      vertex -0.06467199325561523 0.06818254292011261 -0.13044719398021698
      vertex -0.03440000116825104 0 -0.027247199788689613
      vertex -0.06879998743534088 0.05958255007863045 -0.027247199788689613
    endloop
  endfacet
  facet normal -0.7066429998617861 -0.40798119125501403 -0.5781064074445773
    outer loop
      vertex -0.023281920701265335 0.062257081270217896 -0.23418079316616058
      vertex -0.026541389524936676 0.1498824954032898 -0.29203560948371887
      vertex -0.013270690105855465 0.12689700722694397 -0.29203560948371887
    endloop
  endfacet
  facet normal -0.706643131069851 -0.40798112235022876 -0.5781062956910648
    outer loop
      vertex -0.026541389524936676 0.1498824954032898 -0.29203560948371887
      vertex -0.023281920701265335 0.062257081270217896 -0.23418079316616058
      vertex -0.04656384140253067 0.10258249938488007 -0.23418079316616058
    endloop
  endfacet
  facet normal 0.8255423910848227 -0.47662772968946404 -0.30216844278154004
    outer loop
      vertex 0.06467199325561523 0.06818254292011261 -0.13044719398021698
      vertex 0.023281920701265335 0.062257081270217896 -0.23418079316616058
      vertex 0.04656384140253067 0.10258249938488007 -0.23418079316616058
    endloop
  endfacet
  facet normal 0.8255426549434443 -0.476627186248244 -0.3021685791044644
    outer loop
      vertex 0.023281920701265335 0.062257081270217896 -0.23418079316616058
      vertex 0.06467199325561523 0.06818254292011261 -0.13044719398021698
      vertex 0.032336000353097916 0.01217494998127222 -0.13044719398021698
    endloop
  endfacet
  facet normal 0.8659329148942184 0.4999461307801082 0.01463055777478175
    outer loop
      vertex 0.023281920701265335 0.1429080069065094 -0.23418079316616058
      vertex 0.06467199325561523 0.06818254292011261 -0.13044719398021698
      vertex 0.04656384140253067 0.10258249938488007 -0.23418079316616058
    endloop
  endfacet
  facet normal 0.8659326042026102 0.49994665425066714 0.014631058828721982
    outer loop
      vertex 0.06467199325561523 0.06818254292011261 -0.13044719398021698
      vertex 0.023281920701265335 0.1429080069065094 -0.23418079316616058
      vertex 0.032336000353097916 0.12419009953737259 -0.13044719398021698
    endloop
  endfacet
  facet normal -0.8660039320366406 0.49998783541396485 0.0070252498272780775
    outer loop
      vertex -0.06467199325561523 0.06818254292011261 -0.13044719398021698
      vertex -0.03440000116825104 0.1191651001572609 -0.027247199788689613
      vertex -0.032336000353097916 0.12419009953737259 -0.13044719398021698
    endloop
  endfacet
  facet normal -0.8660041259690505 0.499987496360331 0.007025474212384435
    outer loop
      vertex -0.03440000116825104 0.1191651001572609 -0.027247199788689613
      vertex -0.06467199325561523 0.06818254292011261 -0.13044719398021698
      vertex -0.06879998743534088 0.05958255007863045 -0.027247199788689613
    endloop
  endfacet
  facet normal 0.7066429998617861 -0.40798119125501403 -0.5781064074445773
    outer loop
      vertex 0.026541389524936676 0.1498824954032898 -0.29203560948371887
      vertex 0.023281920701265335 0.062257081270217896 -0.23418079316616058
      vertex 0.013270690105855465 0.12689700722694397 -0.29203560948371887
    endloop
  endfacet
  facet normal 0.706643131069851 -0.40798112235022876 -0.5781062956910648
    outer loop
      vertex 0.023281920701265335 0.062257081270217896 -0.23418079316616058
      vertex 0.026541389524936676 0.1498824954032898 -0.29203560948371887
      vertex 0.04656384140253067 0.10258249938488007 -0.23418079316616058
    endloop
  endfacet
  facet normal 0.8609207728482662 0.4970510723702862 0.10842349530379806
    outer loop
      vertex 0.023281920701265335 0.1429080069065094 -0.23418079316616058
      vertex 0.026541389524936676 0.1498824954032898 -0.29203560948371887
      vertex 0.013270690105855465 0.17286810278892517 -0.29203560948371887
    endloop
  endfacet
  facet normal 0.8609202021080506 0.4970520424286305 0.10842358009104892
    outer loop
      vertex 0.026541389524936676 0.1498824954032898 -0.29203560948371887
      vertex 0.023281920701265335 0.1429080069065094 -0.23418079316616058
      vertex 0.04656384140253067 0.10258249938488007 -0.23418079316616058
    endloop
  endfacet
endsolid banana_cc0_poly_pizza_kenney
